<?xml version="1.0" encoding="utf-8"?>
<!-- Generator: Adobe Illustrator 25.0.0, SVG Export Plug-In . SVG Version: 6.00 Build 0)  -->
<svg version="1.1" id="Layer_1" xmlns="http://www.w3.org/2000/svg" xmlns:xlink="http://www.w3.org/1999/xlink" x="0px" y="0px"
	 viewBox="0 0 1920 1080" style="enable-background:new 0 0 1920 1080;" xml:space="preserve">
<style type="text/css">
	.st0{fill:none;stroke:#FFFFFF;stroke-width:15;stroke-linecap:round;stroke-miterlimit:10;}
	.st1{fill:#FFFFFF;}
</style>
<g>
	<g>
		<line class="st0" x1="1124.92" y1="453.62" x2="199.5" y2="453.62"/>
		<g>
			<path class="st1" d="M1202.32,418.69c0-10.05-8.1-18.13-18.15-18.13c-4.04,0-7.79,1.35-10.8,3.6l-43.94,43.97
				c-0.91-1.05-2.11-1.8-3.46-2.11l14.71-55.37l1.2-4.51c0.89-7.03-2.4-14.24-9.01-17.99c-8.7-5.1-19.79-2.11-24.74,6.59
				c-1.95,3.46-2.71,7.06-2.4,10.81v0.15l1.49,5.54l0.15,0.32l0.16,0.29l0.15,0.29l14.25,53.88c-1.35,0.31-2.71,1.05-3.6,2.11
				l-43.8-43.83c-0.75-0.47-1.35-0.91-2.09-1.35c-8.7-4.95-19.8-1.96-24.76,6.74c-4.95,8.7-2.09,19.8,6.61,24.76
				c0.75,0.44,1.49,0.76,2.24,1.05h0.15l4.95,1.35h0.45l0.29,0.15l53.86,14.57c-0.16,0.75-0.31,1.35-0.31,2.09
				c0,0.76,0.15,1.35,0.31,2.1l-55.21,14.7l-4.5,1.2c-0.75,0.3-1.49,0.6-2.24,1.05c-8.7,5.1-11.56,16.2-6.61,24.9
				c4.95,8.7,16.05,11.7,24.76,6.6c0.75-0.45,1.35-0.9,2.09-1.35l1.8-1.66l42-42c0.89,1.05,2.09,1.8,3.46,2.1l-14.71,55.05
				l-1.35,4.65v0.3c-0.15,0.6-0.15,1.35-0.15,2.09c0,10.06,8.25,18.16,18.3,18.16c9.9,0,18.15-8.1,18.15-18.16
				c0-0.89,0-1.65-0.15-2.4v-0.3l-0.16-0.3l-0.89-3.15l-0.29-0.9l-14.56-55.05c1.35-0.3,2.55-1.05,3.46-2.1l40.94,40.95l2.26,2.25
				c5.7,4.8,13.95,5.7,20.7,1.8c8.7-4.95,11.7-16.05,6.61-24.75c-2.11-3.6-5.11-6.3-8.7-7.8h-0.16l-4.5-1.2l-55.05-14.7
				c0.15-0.75,0.31-1.34,0.31-2.1c0-0.75-0.16-1.35-0.31-2.09l55.36-15.01h0.6l3.75-1.05
				C1197.82,432.67,1202.32,426.19,1202.32,418.69z"/>
		</g>
	</g>
</g>
</svg>
